<svg width="48" height="40" viewBox="0 0 48 40" fill="none" xmlns="http://www.w3.org/2000/svg">
<g clip-path="url(#clip0_39_1889)">
<path d="M29.8487 0.503548C35.8989 0.498257 41.9493 0.497154 48 0.500241C46.4501 3.0248 44.9001 5.55134 43.3373 8.0673C43.4425 7.19359 43.119 6.31327 42.5785 5.62608C41.8999 4.76163 40.9774 4.11809 40.0177 3.58566C38.8458 2.94741 37.5938 2.45335 36.3228 2.03799C34.2142 1.34286 32.0368 0.875915 29.8487 0.503548ZM41.9033 2.43483C42.5296 2.84401 43.1107 3.31616 43.6372 3.84361C43.9283 3.376 44.2161 2.90575 44.5045 2.43615C43.6372 2.43483 42.7706 2.43748 41.9033 2.43483Z" fill="#BB5427"/>
<path d="M0 0.5C5.91475 0.556219 11.8309 0.847234 17.7186 1.4167C21.2229 1.76592 24.7197 2.2203 28.1748 2.89889C30.5408 3.3751 32.8967 3.94324 35.1603 4.77991C36.5162 5.28852 37.8519 5.88841 39.0291 6.73037C39.8452 7.31968 40.5966 8.05317 41.0003 8.97912C41.4235 9.91963 41.3642 11.0295 40.9531 11.962C39.8264 13.8139 38.67 15.6493 37.552 17.5065C36.9911 15.8887 36.0949 14.4024 34.9198 13.1413C33.392 11.4878 31.5031 10.1855 29.5111 9.12066C27.0763 7.82895 24.4737 6.86662 21.8287 6.08948C18.4916 5.1192 15.075 4.43796 11.6381 3.92604C8.26866 3.43132 4.88168 3.08893 1.47717 2.89889C0.97647 2.10455 0.48992 1.30228 0 0.5ZM19.9209 3.5927C21.9113 4.08296 23.8721 4.68269 25.7939 5.38905C28.2334 6.29715 30.6089 7.40235 32.7741 8.83891C34.6691 10.1002 36.4057 11.6333 37.7009 13.4978C38.2205 12.6525 38.7454 11.8106 39.2596 10.9627C39.4658 10.4997 39.327 9.95336 39.0777 9.53007C38.6861 8.87528 38.0668 8.38849 37.4334 7.97314C36.2736 7.237 34.9838 6.72971 33.6832 6.28988C32.2961 5.83692 30.8863 5.45435 29.4592 5.14368C26.3135 4.44789 23.1219 3.96639 19.9209 3.5927Z" fill="#BB5427"/>
<path d="M2.88425 5.1958C6.15599 5.4888 9.421 5.97427 12.593 6.82019C15.2387 7.52392 17.8265 8.47369 20.237 9.76077C22.4002 10.9189 24.4151 12.3581 26.1315 14.1009C27.7987 15.7874 29.1562 17.7442 30.1439 19.8848C31.1156 21.9801 31.7181 24.2315 31.9991 26.5146C29.3273 30.8393 26.6612 35.1679 24.0007 39.5005C16.9607 28.0658 9.92193 16.6309 2.88425 5.1958ZM6.67152 7.59006C12.449 16.9766 18.2268 26.3627 24.0047 35.7484C25.9853 32.5228 27.9807 29.3044 29.9552 26.0755C29.5508 23.4722 28.6674 20.9278 27.2529 18.6837C25.87 16.4594 23.9852 14.5539 21.8314 13.038C19.8299 11.6266 17.6061 10.5392 15.2994 9.6986C12.5095 8.68931 9.60363 8.01931 6.67152 7.59006Z" fill="#BB5427"/>
</g>
<defs>
<clipPath id="clip0_39_1889">
<rect width="48" height="39" fill="white" transform="translate(0 0.5)"/>
</clipPath>
</defs>
</svg>
