<svg width="24" height="24" viewBox="0 0 32 32" fill="none" xmlns="http://www.w3.org/2000/svg">
<path fill-rule="evenodd" clip-rule="evenodd" d="M0 15.9997C0 15.3424 0.532818 14.8096 1.19008 14.8096H21.8182C22.4754 14.8096 23.0083 15.3424 23.0083 15.9997C23.0083 16.6569 22.4754 17.1897 21.8182 17.1897H1.19008C0.532818 17.1897 0 16.6569 0 15.9997Z" fill="#000000"/>
<path fill-rule="evenodd" clip-rule="evenodd" d="M14.6296 7.22454C15.0943 6.75979 15.8478 6.75979 16.3126 7.22454L24.1343 15.0462C24.661 15.5729 24.661 16.4269 24.1343 16.9537L16.3126 24.7753C15.8478 25.2401 15.0943 25.2401 14.6296 24.7753C14.1648 24.3106 14.1648 23.5571 14.6296 23.0923L21.7219 15.9999L14.6296 8.90757C14.1648 8.44282 14.1648 7.6893 14.6296 7.22454Z" fill="#000000"/>
<path fill-rule="evenodd" clip-rule="evenodd" d="M21.157 1.19008C21.157 0.532818 21.6898 0 22.3471 0H29.5933C30.3382 0 30.9421 0.603864 30.9421 1.34876V30.6512C30.9421 31.3961 30.3382 32 29.5933 32H21.2892C20.6319 32 20.0991 31.4672 20.0991 30.8099C20.0991 30.1527 20.6319 29.6198 21.2892 29.6198H28.5619V2.38017H22.3471C21.6898 2.38017 21.157 1.84735 21.157 1.19008Z" fill="#000000"/>
</svg>
